<svg xmlns="http://www.w3.org/2000/svg" width="48" height="48" data-name="Layer 2" viewBox="0 0 48 48"><path d="M38.22,17l-1.95-1.59V10.16a1.4,1.4,0,1,0-2.79,0v2.93L28.43,9a7,7,0,0,0-8.86,0L9.78,17a6.92,6.92,0,0,0-2.56,5.38v11.3a7,7,0,0,0,7,7H33.79a7,7,0,0,0,7-7V22.34A6.92,6.92,0,0,0,38.22,17ZM19.81,37.83V28.15a4.2,4.2,0,0,1,8.39,0v9.68ZM38,33.64a4.2,4.2,0,0,1-4.19,4.19H31V28.15a7,7,0,0,0-14,0v9.68h-2.8A4.2,4.2,0,0,1,10,33.64V22.34a4.19,4.19,0,0,1,1.54-3.25l9.79-8a4.21,4.21,0,0,1,5.3,0l9.79,8A4.19,4.19,0,0,1,38,22.34Z"/></svg>